<svg width="64" height="64" viewBox="0 0 64 64" xmlns="http://www.w3.org/2000/svg">
    <defs>
      <linearGradient id="bg" x1="32.90%" y1="3.02%" x2="67.10%" y2="96.98%">
        <stop offset="0%" stop-color="#0D1F35"/>
        <stop offset="100%" stop-color="#0A1828"/>
      </linearGradient>
    </defs>
    <rect width="64" height="64" rx="14.40" ry="14.40" fill="url(#bg)"/>
    <rect x="20.89" y="20.49" width="3.97" height="3.97" fill="#C9A84C"/><rect x="20.89" y="25.25" width="3.97" height="3.97" fill="#C9A84C"/><rect x="20.89" y="30.02" width="3.97" height="3.97" fill="#C9A84C"/><rect x="20.89" y="34.78" width="3.97" height="3.97" fill="#C9A84C"/><rect x="20.89" y="39.54" width="3.97" height="3.97" fill="#C9A84C"/><rect x="39.14" y="20.49" width="3.97" height="3.97" fill="#C9A84C"/><rect x="39.14" y="25.25" width="3.97" height="3.97" fill="#C9A84C"/><rect x="39.14" y="30.02" width="3.97" height="3.97" fill="#C9A84C"/><rect x="39.14" y="34.78" width="3.97" height="3.97" fill="#C9A84C"/><rect x="39.14" y="39.54" width="3.97" height="3.97" fill="#C9A84C"/><rect x="25.65" y="25.25" width="3.97" height="3.97" fill="#C9A84C"/><rect x="34.38" y="25.25" width="3.97" height="3.97" fill="#C9A84C"/><rect x="30.02" y="30.02" width="3.97" height="3.97" fill="#C9A84C"/><rect x="17.72" y="17.72" width="3.97" height="0.99" fill="#C9A84C"/><rect x="17.72" y="17.72" width="0.99" height="3.97" fill="#C9A84C"/><rect x="42.32" y="17.72" width="3.97" height="0.99" fill="#C9A84C"/><rect x="45.29" y="17.72" width="0.99" height="3.97" fill="#C9A84C"/><rect x="17.72" y="45.29" width="3.97" height="0.99" fill="#C9A84C"/><rect x="17.72" y="42.32" width="0.99" height="3.97" fill="#C9A84C"/><rect x="42.32" y="45.29" width="3.97" height="0.99" fill="#C9A84C"/><rect x="45.29" y="42.32" width="0.99" height="3.97" fill="#C9A84C"/>
  </svg>